<svg xmlns="http://www.w3.org/2000/svg" width="64" height="64" viewBox="0 0 64 64">
  <defs>
    <linearGradient id="g" x1="0" y1="0" x2="1" y2="1">
      <stop offset="0" stop-color="#60A5FA" />
      <stop offset="1" stop-color="#2563EB" />
    </linearGradient>
  </defs>
  <rect x="6" y="6" width="52" height="52" rx="14" fill="url(#g)" />
  <path
    d="M19 41V23h6.6c2.3 0 4 .6 5.2 1.8 1.1 1.1 1.7 2.7 1.7 4.7 0 2-.6 3.6-1.7 4.8-1.2 1.2-2.9 1.9-5.2 1.9H25v4H19zm6-9h.4c1.1 0 1.9-.2 2.4-.7.5-.5.8-1.1.8-2s-.3-1.5-.8-2c-.5-.5-1.3-.7-2.4-.7H25v5.4z"
    fill="#fff"
  />
</svg>
